<?xml version="1.0" standalone="no"?><!DOCTYPE svg PUBLIC "-//W3C//DTD SVG 1.1//EN" "http://www.w3.org/Graphics/SVG/1.1/DTD/svg11.dtd"><svg width="100%" height="100%" viewBox="0 0 411 411" version="1.1" xmlns="http://www.w3.org/2000/svg" xmlns:xlink="http://www.w3.org/1999/xlink" xml:space="preserve" style="fill-rule:evenodd;clip-rule:evenodd;stroke-linejoin:round;stroke-miterlimit:1.41421;"><g><path d="M205.436,0.129c113.459,0 205.435,91.978 205.435,205.436c0,113.459 -91.976,205.435 -205.435,205.435c-113.459,0 -205.436,-91.976 -205.436,-205.435c0,-113.458 91.977,-205.436 205.436,-205.436Z" style="fill:#030404;"/><path d="M164.609,273.996c2.989,11.056 2.661,21.366 -0.426,30.703c-0.343,1.037 -0.721,2.063 -1.131,3.077c-0.41,1.012 -0.854,2.013 -1.33,3.001c-2.381,4.94 -5.576,9.564 -9.489,13.832c-11.936,13.022 -28.613,17.946 -35.764,13.797c-7.722,-4.476 -3.854,-22.836 9.985,-37.464c14.888,-15.739 36.309,-25.858 36.309,-25.858l-0.033,-0.064c0.617,-0.332 1.244,-0.674 1.879,-1.024ZM334.299,88.059c-9.303,-36.486 -69.801,-48.481 -127.059,-28.139c-34.075,12.106 -70.964,31.106 -97.488,55.915c-31.537,29.498 -36.566,55.172 -34.494,65.9c7.312,37.854 59.18,62.597 80.502,80.955l0,0.111c-6.287,3.095 -52.304,26.383 -63.073,50.191c-11.363,25.117 1.808,43.141 10.529,45.567c27.019,7.517 54.745,-6.004 69.645,-28.229c14.379,-21.448 13.182,-49.144 6.933,-62.921c8.62,-2.274 18.669,-3.293 31.44,-1.801c36.037,4.209 43.108,26.711 41.756,36.126c-1.351,9.418 -8.91,14.596 -11.437,16.159c-2.528,1.564 -3.299,2.105 -3.086,3.267c0.306,1.69 1.476,1.627 3.631,1.262c2.966,-0.5 18.923,-7.66 19.605,-25.043c0.869,-22.07 -20.281,-46.758 -57.73,-46.113c-15.423,0.266 -25.121,1.733 -32.126,4.34c-0.518,-0.59 -1.045,-1.177 -1.59,-1.758c-23.152,-24.701 -65.951,-42.174 -64.136,-75.381c0.66,-12.072 4.856,-43.861 82.239,-82.42c63.39,-31.587 114.136,-22.895 122.906,-3.631c12.527,27.521 -27.121,78.673 -92.952,86.051c-25.081,2.812 -38.287,-6.909 -41.572,-10.529c-3.459,-3.811 -3.974,-3.983 -5.265,-3.268c-2.104,1.165 -0.771,4.53 0,6.536c1.965,5.115 10.031,14.186 23.782,18.698c12.096,3.97 41.544,6.151 77.157,-7.624c39.885,-15.429 71.031,-58.347 61.883,-94.221Z" style="fill:#fff;fill-rule:nonzero;"/></g></svg>