<?xml version="1.0" encoding="UTF-8"?><svg version="1.1" viewBox="0 0 30 30" xmlns="http://www.w3.org/2000/svg" xmlns:xlink="http://www.w3.org/1999/xlink"><g fill="#000"><path d="M24.446 26.945h-18.892c-1.378 0-2.5-1.122-2.5-2.5v-18.89c0-1.378 1.122-2.5 2.5-2.5h18.893c1.378 0 2.5 1.122 2.5 2.5v18.891c-.001 1.378-1.122 2.499-2.501 2.499Zm-18.892-22.89c-.827 0-1.5.673-1.5 1.5v18.891c0 .827.673 1.5 1.5 1.5h18.893c.827 0 1.5-.673 1.5-1.5v-18.891c0-.827-.673-1.5-1.5-1.5h-18.893Z"></path><path d="M19.792 20.536c-1.224 0-2.219-.995-2.219-2.219 0-1.224.995-2.219 2.219-2.219 1.224 0 2.219.995 2.219 2.219 0 1.224-.995 2.219-2.219 2.219Zm0-3.437c-.672 0-1.219.547-1.219 1.219 0 .672.547 1.219 1.219 1.219 .672 0 1.219-.547 1.219-1.219 0-.672-.547-1.219-1.219-1.219Z"></path><path d="M23.604 18.817h-2.094c-.276 0-.5-.224-.5-.5 0-.672-.547-1.219-1.219-1.219 -.672 0-1.219.547-1.219 1.219 0 .276-.224.5-.5.5h-2.094c-.276 0-.5-.224-.5-.5v-8.353c0-.276.224-.5.5-.5h7.625c.276 0 .5.224.5.5v8.354c.001.276-.222.499-.499.499Zm-1.65-1h1.15v-7.354h-6.625v7.354h1.15c.228-.983 1.11-1.719 2.162-1.719 1.052 0 1.936.736 2.163 1.719Z"></path><path d="M10.208 14.797c-1.224 0-2.219-.995-2.219-2.219 0-1.224.995-2.219 2.219-2.219 1.224 0 2.219.995 2.219 2.219 0 1.224-.995 2.219-2.219 2.219Zm0-3.438c-.672 0-1.219.547-1.219 1.219 0 .672.547 1.219 1.219 1.219 .672 0 1.219-.547 1.219-1.219 0-.672-.547-1.219-1.219-1.219Z"></path><path d="M14.021 13.078h-2.094c-.276 0-.5-.224-.5-.5 0-.672-.547-1.219-1.219-1.219 -.672 0-1.219.547-1.219 1.219 0 .276-.224.5-.5.5h-2.093c-.276 0-.5-.224-.5-.5v-5.375c0-.276.224-.5.5-.5h7.625c.276 0 .5.224.5.5v5.375c0 .276-.224.5-.5.5Zm-1.651-1h1.15v-4.375h-6.624v4.375h1.15c.228-.983 1.11-1.719 2.162-1.719 1.052 0 1.935.736 2.162 1.719Z"></path><path d="M10.208 23.297c-1.224 0-2.219-.995-2.219-2.219 0-1.224.995-2.219 2.219-2.219 1.224 0 2.219.995 2.219 2.219 0 1.224-.995 2.219-2.219 2.219Zm0-3.438c-.672 0-1.219.547-1.219 1.219 0 .672.547 1.219 1.219 1.219 .672 0 1.219-.547 1.219-1.219 0-.672-.547-1.219-1.219-1.219Z"></path><path d="M14.021 21.578h-2.094c-.276 0-.5-.224-.5-.5 0-.672-.547-1.219-1.219-1.219 -.672 0-1.219.547-1.219 1.219 0 .276-.224.5-.5.5h-2.093c-.276 0-.5-.224-.5-.5v-5.375c0-.276.224-.5.5-.5h7.625c.276 0 .5.224.5.5v5.375c0 .276-.224.5-.5.5Zm-1.651-1h1.15v-4.375h-6.624v4.375h1.15c.228-.983 1.11-1.719 2.162-1.719 1.052 0 1.935.736 2.162 1.719Z"></path></g></svg>