<?xml version="1.0" encoding="UTF-8"?><svg version="1.1" viewBox="0 0 30 30" xmlns="http://www.w3.org/2000/svg" xmlns:xlink="http://www.w3.org/1999/xlink"><g fill="#000"><path d="M12.7 20.3c-.2 0-.5-.1-.7-.2 -.4-.2-.7-.7-.7-1.2v-7.9c0-.5.3-1 .7-1.2 .4-.2 1-.2 1.4.1l6 3.9c.4.3.6.7.6 1.2 0 .5-.2.9-.6 1.2l-6 3.9c-.1.1-.4.2-.7.2Zm0-9.6c-.1 0-.1 0-.2 0 -.1.1-.2.2-.2.3v7.9c0 .1.1.3.2.3 .1.1.3.1.4 0l6-3.9c.1-.1.2-.2.2-.3 0-.1-.1-.2-.2-.3l-6-3.9c1.77636e-15-.1-.1-.1-.2-.1Z"></path><path d="M15 26.9c-6.6 0-11.9-5.3-11.9-11.9 4.44089e-16-6.6 5.3-11.9 11.9-11.9 6.6 4.44089e-16 11.9 5.3 11.9 11.9 0 6.6-5.3 11.9-11.9 11.9Zm0-22.8c-6-1.77636e-15-10.9 4.9-10.9 10.9 0 6 4.9 10.9 10.9 10.9 6 0 10.9-4.9 10.9-10.9 0-6-4.9-10.9-10.9-10.9Z"></path></g></svg>