<?xml version="1.0" encoding="UTF-8"?><svg version="1.1" viewBox="0 0 30 30" xmlns="http://www.w3.org/2000/svg" xmlns:xlink="http://www.w3.org/1999/xlink"><path d="M23.172 26.781h-16.348c-1.989 0-3.606-1.615-3.606-3.602v-16.353c0-1.989 1.618-3.607 3.606-3.607h16.348c1.991 0 3.61 1.618 3.61 3.607v16.354c0 1.986-1.619 3.601-3.61 3.601Zm-16.348-22.562c-1.437-8.88178e-16-2.606 1.17-2.606 2.607v16.354c0 1.435 1.169 2.602 2.606 2.602h16.348c1.439 0 2.61-1.167 2.61-2.602v-16.354c0-1.438-1.171-2.607-2.61-2.607h-16.348Z" fill="#000"></path><path fill="none" stroke="#000" stroke-linecap="square" stroke-linejoin="round" stroke-width="1" d="M13.709 10.971"></path><g fill="#000"><rect width="2.463" height="1" x="10.281" y="7.543"></rect><rect width="3.928" height="1" x="10.281" y="13.301"></rect><rect width="1" height="6.758" x="11.744" y="7.543"></rect><path d="M19.719 11.291h-1v-2.748h-2.928v-1h3.428c.276 0 .5.224.5.5v3.248Z"></path><path d="M19.719 14.301h-3.428c-.276 0-.5-.224-.5-.5v-2.93c0-.276.224-.5.5-.5h3.428v1h-2.928v1.93h2.928v1Z"></path><path d="M13.709 19.627h-3.428v-1h2.928v-1.93h-2.928v-1h3.428c.276 0 .5.224.5.5v2.93c0 .276-.224.5-.5.5Z"></path><path d="M13.709 22.455h-3.428v-1h2.928v-1.928h-2.928v-1h3.428c.276 0 .5.224.5.5v2.928c0 .276-.224.5-.5.5Z"></path><path d="M19.219 19.627h-2.928c-.276 0-.5-.224-.5-.5v-3.43h1v2.93h1.928v-2.93h1v3.43c0 .276-.224.5-.5.5Z"></path><rect width="1" height="3.928" x="18.719" y="18.527"></rect></g><path fill="none" stroke="#000" stroke-linecap="square" stroke-linejoin="round" stroke-width="1" d="M16.291 19.027"></path></svg>