<?xml version="1.0" encoding="UTF-8"?><svg version="1.1" viewBox="0 0 30 30" xmlns="http://www.w3.org/2000/svg" xmlns:xlink="http://www.w3.org/1999/xlink"><g fill="#000"><path d="M15 17.2c-.1 0-.2 0-.2-.1l-5.8-3.3c-.2-.1-.2-.3-.2-.4v-5c0-.2.1-.3.2-.4l5.7-3.3c.2-.1.3-.1.5 0l5.8 3.3c.2.1.2.3.2.4v4.9c0 .2-.1.3-.2.4l-5.7 3.3c-.1.1-.2.2-.3.2Zm-5.2-4.1l5.2 3 5.2-3v-4.4l-5.2-3 -5.2 3v4.4Z"></path><path d="M15 12.2c-.1 0-.2 0-.2-.1l-5.8-3.3c-.2-.1-.3-.4-.2-.6 .2-.3.5-.4.7-.2l5.5 3.2 5.5-3.2c.2-.1.5-.1.7.2 .1.2.1.5-.2.7l-5.7 3.3c-.1 0-.2 0-.3 0Z"></path><path d="M15 17.2c-.3 0-.5-.2-.5-.5v-4.9c0-.3.2-.5.5-.5 .3 0 .5.2.5.5v4.9c0 .2-.2.5-.5.5Z"></path><path d="M15.4 8c-.1-.1-.2-.2-.4-.2 -.1 0-.2 0-.2.1 -.2.1-.4.3-.4.5 0 .3.3.6.6.6 .3 0 .6-.3.6-.6 0-.2-.1-.3-.2-.4Z"></path><path d="M9.3 25.4c-.1 0-.2 0-.2-.1l-5.8-3.3c-.2-.1-.3-.2-.3-.4v-4.9c0-.2.1-.3.2-.4l5.8-3.4c.2-.1.3-.1.5 0l5.7 3.3c.2.1.2.3.2.4v4.9c0 .2-.1.3-.2.4l-5.7 3.3c-.1.2-.2.2-.2.2Zm-5.3-4.1l5.2 3 5.2-3v-4.4l-5.2-3 -5.2 3v4.4Z"></path><path d="M9.3 20.5c-.1 0-.2 0-.2-.1l-5.7-3.3c-.4-.1-.5-.5-.3-.7 .1-.2.4-.3.7-.2l5.5 3.2 5.5-3.2c.2-.1.5-.1.7.2 .1.2.1.5-.2.7l-5.7 3.3c-.2.1-.3.1-.3.1Z"></path><path d="M9.3 25.4c-.3 0-.5-.2-.5-.5v-4.9c0-.3.2-.5.5-.5 .3 0 .5.2.5.5v4.9c0 .3-.3.5-.5.5Z"></path><path d="M20.7 25.4c-.1 0-.2 0-.2-.1l-5.7-3.3c-.2-.1-.2-.3-.2-.4v-4.9c0-.2.1-.3.2-.4l5.7-3.3c.2-.1.3-.1.5 0l5.7 3.3c.2.1.2.3.2.4v4.9c0 .2-.1.3-.2.4l-5.7 3.3c-.1.1-.2.1-.3.1Zm-5.2-4.1l5.2 3 5.2-3v-4.4l-5.2-3 -5.2 3v4.4Z"></path><path d="M20.7 20.5c-.1 0-.2 0-.2-.1l-5.7-3.3c-.2-.1-.3-.4-.2-.7 .1-.2.4-.3.7-.2l5.5 3.2 5.5-3.2c.2-.1.5-.1.7.2 .1.2.1.5-.2.7l-5.8 3.3c-.1.1-.2.1-.3.1Z"></path><path d="M20.7 25.4c-.3 0-.5-.2-.5-.5v-4.9c0-.3.2-.5.5-.5 .3 0 .5.2.5.5v4.9c0 .3-.2.5-.5.5Z"></path></g></svg>