<?xml version="1.0" encoding="UTF-8"?><svg version="1.1" viewBox="0 0 30 30" xmlns="http://www.w3.org/2000/svg" xmlns:xlink="http://www.w3.org/1999/xlink"><g fill="#000"><path d="M22.683 26.931h-15.368c-.826 0-1.498-.672-1.498-1.499v-20.863c0-.827.672-1.5 1.498-1.5h15.367c.827 0 1.5.673 1.5 1.5v20.862c.001.827-.672 1.5-1.499 1.5Zm-15.368-22.862c-.274 8.88178e-16-.498.224-.498.5v20.862c0 .275.224.499.498.499h15.367c.276 0 .5-.224.5-.499v-20.862c0-.276-.224-.5-.5-.5h-15.367Z"></path><circle cx="10.031" cy="8.233" r=".719"></circle><path d="M10.031 9.452c-.672 0-1.219-.547-1.219-1.219 0-.672.547-1.219 1.219-1.219 .672 0 1.219.547 1.219 1.219 0 .672-.547 1.219-1.219 1.219Zm0-1.437c-.121 0-.219.098-.219.219 0 .244.438.244.438 0 0-.121-.098-.219-.219-.219Z"></path><line x1="12.56" x2="19.75" y1="8.23" y2="8.23"></line><rect width="7.188" height="1" x="12.562" y="7.733"></rect><line x1="13.5" x2="20.69" y1="8.23" y2="8.23"></line><path d="M20.688 8.733h-7.188c-.276 0-.5-.224-.5-.5 0-.276.224-.5.5-.5h7.188c.276 0 .5.224.5.5 0 .276-.224.5-.5.5Z"></path><circle cx="10.031" cy="12.745" r=".719"></circle><path d="M10.031 13.964c-.672 0-1.219-.547-1.219-1.219 0-.672.547-1.219 1.219-1.219 .672 0 1.219.547 1.219 1.219 0 .672-.547 1.219-1.219 1.219Zm0-1.438c-.123 0-.219.096-.219.219 0 .241.438.241.438 0 0-.12-.098-.219-.219-.219Z"></path><line x1="12.56" x2="19.75" y1="12.74" y2="12.74"></line><rect width="7.188" height="1" x="12.562" y="12.245"></rect><line x1="13.5" x2="20.69" y1="12.74" y2="12.74"></line><path d="M20.688 13.245h-7.188c-.276 0-.5-.224-.5-.5 0-.276.224-.5.5-.5h7.188c.276 0 .5.224.5.5 0 .276-.224.5-.5.5Z"></path><circle cx="10.031" cy="17.255" r=".719"></circle><path d="M10.031 18.474c-.672 0-1.219-.547-1.219-1.219 0-.672.547-1.219 1.219-1.219 .672 0 1.219.547 1.219 1.219 0 .672-.547 1.219-1.219 1.219Zm0-1.438c-.121 0-.219.098-.219.219 0 .243.438.244.438 0 0-.121-.098-.219-.219-.219Z"></path><line x1="12.56" x2="19.75" y1="17.25" y2="17.25"></line><rect width="7.188" height="1" x="12.562" y="16.755"></rect><line x1="13.5" x2="20.69" y1="17.25" y2="17.25"></line><path d="M20.688 17.755h-7.188c-.276 0-.5-.224-.5-.5 0-.276.224-.5.5-.5h7.188c.276 0 .5.224.5.5 0 .276-.224.5-.5.5Z"></path><circle cx="10.031" cy="21.767" r=".719"></circle><path d="M10.031 22.985c-.672 0-1.219-.547-1.219-1.219 0-.672.547-1.219 1.219-1.219 .672 0 1.219.547 1.219 1.219 0 .672-.547 1.219-1.219 1.219Zm0-1.437c-.123 0-.219.096-.219.219 0 .241.438.241.438 0 0-.121-.098-.219-.219-.219Z"></path><line x1="12.56" x2="19.75" y1="21.77" y2="21.77"></line><rect width="7.188" height="1" x="12.562" y="21.267"></rect><line x1="13.5" x2="20.69" y1="21.77" y2="21.77"></line><path d="M20.688 22.267h-7.188c-.276 0-.5-.224-.5-.5 0-.276.224-.5.5-.5h7.188c.276 0 .5.224.5.5 0 .276-.224.5-.5.5Z"></path></g></svg>