<?xml version="1.0" encoding="UTF-8"?><svg version="1.1" viewBox="0 0 24 24" xmlns="http://www.w3.org/2000/svg" xmlns:xlink="http://www.w3.org/1999/xlink"><g fill="#000"><path d="M12 23.6c-6.4 0-11.6-5.2-11.6-11.6 -3.33067e-16-6.4 5.2-11.6 11.6-11.6 6.4-3.33067e-16 11.6 5.2 11.6 11.6 0 6.4-5.2 11.6-11.6 11.6Zm0-22.2c-5.9 1.33227e-15-10.6 4.7-10.6 10.6 -4.44089e-16 5.9 4.7 10.6 10.6 10.6 5.9 0 10.6-4.8 10.6-10.6 0-5.8-4.7-10.6-10.6-10.6Z"></path><path d="M12 14.6c-1.4 0-2.6-1.1-2.6-2.6 0-1.4 1.1-2.6 2.6-2.6 1.4 0 2.5 1.1 2.5 2.6 .1 1.4-1.1 2.6-2.5 2.6Zm0-4.2c-.9 0-1.6.7-1.6 1.6 0 .9.7 1.6 1.6 1.6 .9 0 1.5-.7 1.5-1.6 .1-.9-.6-1.6-1.5-1.6Z"></path><path d="M12.9 19.8h-1.8c-.5 0-.9-.3-1.1-.8l-.2-1c-.6-.2-1.2-.6-1.8-1l-1 .3c-.5.1-1-.1-1.3-.5l-.9-1.6c-.3-.4-.2-1 .2-1.4l.8-.8c-.1-.7-.1-1.4 0-2l-.8-.7c-.3-.4-.4-.9-.2-1.4l.9-1.6c.3-.4.8-.6 1.3-.5l1 .3c.3-.2.6-.4.8-.6 .3-.2.6-.3.9-.4l.2-1c.1-.5.6-.8 1.1-.8h1.8c.5 0 1 .4 1.1.9l.2 1c.6.2 1.2.6 1.8 1l1-.3c.5-.1 1 .1 1.3.5l.9 1.5c.3.4.2 1-.2 1.3l-.7.8c.1.7.1 1.4 0 2l.8.7c.4.3.4.9.2 1.4l-.9 1.6c-.2.4-.8.6-1.3.5l-1-.3c-.3.2-.6.4-.8.6 -.3.2-.6.3-.9.4l-.2 1c-.2.5-.7.9-1.2.9Zm-4.8-4c.1 0 .2 0 .3.1 .6.5 1.2.9 1.9 1.1 .2.1.3.2.3.4l.3 1.3c0 0 0 .1.1.1h1.8c0 0 .1 0 .1-.1l.3-1.3c0-.2.2-.3.3-.4 .3-.1.6-.2 1-.4 .3-.2.6-.4.9-.6 .1-.1.3-.2.5-.1l1.3.4c0 0 .1 0 .1 0l.9-1.6c0 0 0-.1 0-.1l-1-.9c-.1-.1-.2-.3-.1-.5 .1-.7.1-1.5 0-2.2 0-.2 0-.3.1-.5l1-.9c0 0 0-.1 0-.1l-1-1.6 -1.2.3c-.2 0-.3 0-.5-.1 -.5-.5-1.2-.9-1.8-1.1 -.2-.1-.3-.2-.3-.4l-.4-1.3c0-.1-.1-.1-.1-.1h-1.8c-.1 0-.1 0-.1.1l-.3 1.3c0 .2-.2.3-.3.4 -.4.1-.7.3-1 .4 -.3.2-.6.4-.9.7 -.2.1-.3.1-.5.1l-1.3-.4c-.1 0-.1 0-.1.1l-.9 1.5c0 0 0 .1 0 .1l1 .9c.1.1.2.3.1.5 -.2.7-.2 1.4 0 2.2 0 .2 0 .3-.1.5l-1 .9c0 0 0 .1 0 .1l.9 1.6c0 0 .1 0 .1 0l1.3-.4c0 0 .1 0 .1 0Z"></path></g></svg>