<?xml version="1.0" encoding="UTF-8"?><svg version="1.1" viewBox="0 0 30 30" xmlns="http://www.w3.org/2000/svg" xmlns:xlink="http://www.w3.org/1999/xlink"><g fill="#000"><path d="M14.999 26.945c-6.586 0-11.944-5.358-11.944-11.945 0-6.587 5.358-11.945 11.944-11.945 6.587 0 11.946 5.358 11.946 11.945 0 6.587-5.359 11.945-11.946 11.945Zm0-22.89c-6.035 0-10.944 4.91-10.944 10.945 0 6.035 4.91 10.945 10.944 10.945 6.036 0 10.946-4.91 10.946-10.945 0-6.035-4.91-10.945-10.946-10.945Z"></path><path d="M14.999 26.945c-1.415 0-2.82-.258-4.178-.766 -.195-.073-.325-.26-.325-.469v-3.998c0-1.941 1.58-3.521 3.521-3.521h.705c.737 0 1.337-.598 1.344-1.335 -.793-.548-1.275-1.448-1.275-2.415v-2.965c0-1.624 1.32-2.945 2.943-2.945h1.97c1.624 0 2.944 1.321 2.944 2.945v2.965c0 .968-.482 1.868-1.277 2.415 .007.737.609 1.335 1.348 1.335h.706c.904 0 1.767.348 2.428.98 .151.145.197.367.114.56 -1.893 4.382-6.198 7.214-10.968 7.214Zm-3.503-1.587c1.144.39 2.321.587 3.503.587 4.247 0 8.091-2.45 9.897-6.272 -.429-.312-.941-.481-1.472-.481h-.706c-1.294 0-2.348-1.053-2.348-2.348v-.266c0-.183.1-.351.26-.438 .628-.344 1.018-.994 1.018-1.698v-2.965c0-1.072-.872-1.945-1.944-1.945h-1.97c-1.072 0-1.943.873-1.943 1.945v2.965c0 .703.389 1.354 1.016 1.698 .16.088.259.256.259.438v.266c0 1.295-1.051 2.348-2.344 2.348h-.705c-1.39 0-2.521 1.131-2.521 2.521v3.645Z"></path></g></svg>