<?xml version="1.0" encoding="UTF-8"?><svg version="1.1" viewBox="0 0 30 30" xmlns="http://www.w3.org/2000/svg" xmlns:xlink="http://www.w3.org/1999/xlink"><g fill="#000"><path d="M25.552 21.527h-21.104c-.816 0-1.479-.664-1.479-1.479v-14.409c0-.815.664-1.479 1.479-1.479h21.104c.816 0 1.479.664 1.479 1.479v14.409c0 .815-.663 1.479-1.479 1.479Zm-21.104-16.368c-.264 8.88178e-16-.479.215-.479.479v14.409c0 .265.215.479.479.479h21.104c.264 0 .479-.215.479-.479v-14.408c0-.265-.215-.479-.479-.479h-21.104Z"></path><path d="M17.344 25.841h-4.688c-.276 0-.5-.224-.5-.5v-2.438c0-.276.224-.5.5-.5h4.688c.276 0 .5.224.5.5v2.438c0 .276-.224.5-.5.5Zm-4.188-1h3.688v-1.438h-3.688v1.438Z"></path><path d="M19.938 25.841h-9.875c-.276 0-.5-.224-.5-.5 0-.276.224-.5.5-.5h9.875c.276 0 .5.224.5.5 0 .276-.224.5-.5.5Z"></path><path d="M15 17.847c-3.29 0-6.256-1.831-7.743-4.778 -.072-.143-.072-.31 0-.451 1.489-2.948 4.456-4.779 7.743-4.779 3.29 0 6.256 1.831 7.743 4.778 .071.142.072.309 0 .45 -1.484 2.949-4.451 4.78-7.743 4.78Zm-6.732-5.004c1.351 2.477 3.907 4.004 6.732 4.004 2.827 0 5.384-1.527 6.732-4.004 -1.35-2.477-3.907-4.004-6.732-4.004 -2.823 0-5.38 1.527-6.732 4.004Z"></path><path d="M15 15.349c-1.382 0-2.506-1.124-2.506-2.506 0-1.382 1.124-2.506 2.506-2.506 1.382 0 2.506 1.124 2.506 2.506 0 1.382-1.124 2.506-2.506 2.506Zm0-4.012c-.831 0-1.506.676-1.506 1.506 0 .83.675 1.506 1.506 1.506 .831 0 1.506-.676 1.506-1.506 0-.83-.675-1.506-1.506-1.506Z"></path></g></svg>