<svg version="1" xmlns="http://www.w3.org/2000/svg" width="682.667" height="682.667" viewBox="0 0 512.000000 512.000000"><path d="M0 43c0 23.6.3 43 .8 43.1.4 0 55.1.1 121.7.1 115.1.1 121 0 122-1.7 14.1-24.4 36.3-43.6 68.5-59.4 18.9-9.2 32.8-14.1 58.5-20.6l17-4.4H194.3L0 0v43zM459.7 21.6c-.1.1-3.6.5-7.7.8-14.8 1.3-16.7 1.5-29.8 3.5-41.4 6.4-77.2 18.6-101.5 34.8-7.8 5.2-18.9 15.9-23.6 22.7l-3.2 4.6H512V22l-3.2-.2c-4.5-.2-48.9-.4-49.1-.2zM3.7 122.8l-3.7.3.2 69.6.3 69.6 116.8.1c64.3.1 117.3-.2 117.9-.5 2.6-1.6 4.2-28.7 2.4-39.4-.3-1.7-.7-5-1.1-7.5-.3-2.5-1-7.4-1.5-11-1.6-11.1-1.9-14.2-2.7-26-1.1-18-.8-36.9 1.1-52.3.3-2.6.1-2.7-4.3-2.8-23.1-.2-222.5-.3-225.4-.1zM293 122.8c-3.5.2-6.7.8-7.1 1.4-1.1 1.8-.1 29.8 1.5 42.3.9 6.6 3.2 19 5.1 27.5 7.6 33.7 8.5 39.6 8.6 57.2 0 6 .4 10.9.7 10.9.4.1 47.8.2 105.5.3l104.7.1V123h-5.2c-32.7-.3-208.9-.4-213.8-.2zM0 387.1v90.1l2.8-.6c7.4-1.8 41.7-16 57.7-23.9 29.5-14.6 57.3-33.5 84.9-57.7 26.5-23.2 51.9-56 66.4-86.2 2.9-5.9 5.2-10.9 5.2-11.2 0-.3-48.8-.6-108.5-.6H0v90.1zM291.9 299.8c-.5 1.3-.9 2.9-.9 3.6 0 .6-.7 3.7-1.5 6.8-.8 3.1-1.6 6.8-1.9 8.1-1.4 7.9-8.9 31.7-15.4 49.2-16.5 44.2-45.9 93.5-79.6 133.5l-8.8 10.5 162.3.3c89.3.1 162.9 0 163.4-.2.7-.2 1-36.9 1-107.2l-.1-106.9-108.8-.1H292.8l-.9 2.4z"/></svg>